<svg xmlns="http://www.w3.org/2000/svg" viewBox="0 0 200 100"><defs><style>.a{fill:#a3a3a3;}</style></defs><rect class="a" x="49.93" y="55.17" width="144.14" height="3.3" rx="1.34"/><path class="a" d="M53.14,43.05a3.07,3.07,0,0,1,1,.61l-.61.72a2.59,2.59,0,0,0-.71-.43,2.19,2.19,0,0,0-.77-.13,1.22,1.22,0,0,0-.74.2.76.76,0,0,0-.17,1,1,1,0,0,0,.4.31,6,6,0,0,0,.84.31,3.88,3.88,0,0,1,1.46.76,1.69,1.69,0,0,1,.49,1.32,1.91,1.91,0,0,1-.29,1,2,2,0,0,1-.87.72,3.15,3.15,0,0,1-1.33.26,3.61,3.61,0,0,1-1.35-.25,3.2,3.2,0,0,1-1-.66l.65-.72a3,3,0,0,0,.79.49,2.36,2.36,0,0,0,.9.16,1.41,1.41,0,0,0,.88-.25.86.86,0,0,0,.33-.73,1,1,0,0,0-.11-.47,1.1,1.1,0,0,0-.39-.33,5,5,0,0,0-.8-.31,3.7,3.7,0,0,1-1.52-.78,1.59,1.59,0,0,1-.46-1.2,1.61,1.61,0,0,1,.28-1,1.9,1.9,0,0,1,.8-.64,2.81,2.81,0,0,1,1.15-.23A3.37,3.37,0,0,1,53.14,43.05Z"/><path class="a" d="M61,43l-.13.93H58.43v1.84h2.12v.93H58.43v1.93H61v.94H57.18V43Z"/><path class="a" d="M70.26,49.57H69l-.18-2.75c0-1-.08-1.76-.08-2.34v-.34l-1.2,4.72H66.39l-1.27-4.73c0,.42,0,.74,0,.95,0,.58,0,1.17,0,1.78l-.16,2.71H63.7L64.22,43h1.62L67,47.6l1.1-4.6h1.64Z"/><path class="a" d="M76.76,49.57l-.41-1.52H74.17l-.4,1.52H72.46L74.51,43h1.55l2,6.57ZM74.42,47.1H76.1L75.26,44Z"/><path class="a" d="M85.49,49.57H83.86l-2.25-5.32c0,.47.1.9.13,1.28s0,.83,0,1.36v2.68H80.64V43h1.59l2.29,5.33c0-.26-.08-.59-.11-1s-.06-.83-.06-1.24V43h1.14Z"/><path class="a" d="M92.32,49.57l-.41-1.52H89.73l-.4,1.52H88l2-6.57h1.55l2,6.57ZM90,47.1h1.68L90.82,44Z"/><path class="a" d="M104.45,43.69a3,3,0,0,1,.92,2.56,3.2,3.2,0,0,1-.9,2.58,3.55,3.55,0,0,1-2.3.74h-1.79V43H102A4,4,0,0,1,104.45,43.69Zm-2.81.25v4.69h.62a1.67,1.67,0,0,0,1.31-.52,2.74,2.74,0,0,0,.48-1.86,3.29,3.29,0,0,0-.25-1.44,1.34,1.34,0,0,0-.63-.69,2.3,2.3,0,0,0-1-.18Z"/><path class="a" d="M112.17,43l-.13.93h-2.43v1.84h2.12v.93h-2.12v1.93h2.6v.94h-3.85V43Z"/><path class="a" d="M120.65,43v5.54h2.64l-.14,1H119.4V43Z"/><path class="a" d="M129.5,49.57l-.41-1.52h-2.18l-.41,1.52h-1.3l2-6.57h1.55l2,6.57Zm-2.34-2.47h1.68L128,44Z"/><path class="a" d="M139,48.61a2.29,2.29,0,0,1-.5,1.6,3.45,3.45,0,0,1-1.43.84l-.34-.91a2,2,0,0,0,.64-.36,1.07,1.07,0,0,0,.29-.49,3,3,0,0,0,.07-.73V43H139Z"/><path class="a" d="M147.14,47.42a2.55,2.55,0,0,1-.28,1.19,2.05,2.05,0,0,1-.84.81,2.79,2.79,0,0,1-1.34.3,2.46,2.46,0,0,1-1.81-.63,2.26,2.26,0,0,1-.62-1.67V43h1.25v4.36a1.58,1.58,0,0,0,.29,1,1.32,1.32,0,0,0,1.79,0,1.53,1.53,0,0,0,.29-1V43h1.27Z"/><path class="a" d="M155,43l-1.95,6.57h-1.5l-2-6.57h1.35l1.43,5.46L153.74,43Z"/><path class="a" d="M161.38,43l-.13.93h-2.43v1.84h2.12v.93h-2.12v1.93h2.6v.94h-3.85V43Z"/><path class="a" d="M169.27,49.57h-1.62l-2.26-5.32c.06.47.1.9.13,1.28s0,.83,0,1.36v2.68h-1.14V43H166l2.29,5.33c0-.26-.07-.59-.11-1s-.06-.83-.06-1.24V43h1.14Z"/><path class="a" d="M176.85,43l-.14,1H175v5.57h-1.26V44H172V43Z"/><path class="a" d="M184.27,47.42a2.43,2.43,0,0,1-.28,1.19,2.05,2.05,0,0,1-.84.81,2.78,2.78,0,0,1-1.33.3,2.44,2.44,0,0,1-1.81-.63,2.23,2.23,0,0,1-.63-1.67V43h1.25v4.36a1.58,1.58,0,0,0,.29,1,1.13,1.13,0,0,0,.9.35,1.1,1.1,0,0,0,.89-.35,1.53,1.53,0,0,0,.29-1V43h1.27Z"/><path class="a" d="M191.59,43.69a3,3,0,0,1,.92,2.56,3.2,3.2,0,0,1-.9,2.58,3.53,3.53,0,0,1-2.3.74h-1.78V43h1.61A4,4,0,0,1,191.59,43.69Zm-2.81.25v4.69h.62a1.66,1.66,0,0,0,1.31-.52,2.74,2.74,0,0,0,.48-1.86,3.47,3.47,0,0,0-.24-1.44,1.36,1.36,0,0,0-.64-.69,2.27,2.27,0,0,0-.95-.18Z"/><path class="a" d="M38,41.74a9.89,9.89,0,0,0-1.39-2.4,9.42,9.42,0,0,0-2-1.89c-2-1.42-5.28-2.36-6.87,3-.48,1.64-.69,4.64.3,5.72s3.81,1.66,5.51,1.56C39.13,47.42,38.93,44,38,41.74Z"/><path class="a" d="M39,56.89a10.1,10.1,0,0,0,1-2.59,9.88,9.88,0,0,0,.2-2.77c-.15-2.46-1.46-5.6-6.68-3.46-1.58.64-4.05,2.35-4.27,3.8-.42,1.41,1.07,4,2.22,5.28C35.32,61.32,37.85,59.05,39,56.89Z"/><path class="a" d="M27.86,67.17a10,10,0,0,0,2.65-.83,10.23,10.23,0,0,0,2.29-1.57c1.83-1.66,3.47-4.64-1.46-7.38-1.49-.83-4.37-1.7-5.65-1-1.36.55-2.46,3.35-2.73,5C22.08,67,25.43,67.58,27.86,67.17Z"/><path class="a" d="M12.86,64.86a9.68,9.68,0,0,0,2.3,1.55,9.8,9.8,0,0,0,2.65.81c2.44.39,5.79-.19,4.85-5.76-.28-1.68-1.4-4.46-2.77-5-1.28-.72-4.15.17-5.64,1C9.35,60.25,11,63.22,12.86,64.86Z"/><path class="a" d="M5.29,51.7a9.82,9.82,0,0,0,.22,2.76,10.09,10.09,0,0,0,1,2.58c1.21,2.15,3.76,4.4,7.52.2,1.14-1.27,2.61-3.89,2.18-5.3-.24-1.45-2.72-3.14-4.31-3.77C6.69,46.08,5.42,49.24,5.29,51.7Z"/><path class="a" d="M10.84,37.56a9.91,9.91,0,0,0-2,1.91,9.57,9.57,0,0,0-1.37,2.41c-.92,2.29-1.09,5.69,4.54,6,1.7.09,4.67-.39,5.5-1.61,1-1.09.75-4.09.25-5.72C16.1,35.16,12.84,36.13,10.84,37.56Z"/><path class="a" d="M25.51,33.1a9.54,9.54,0,0,0-2.75-.41h-.17a9.85,9.85,0,0,0-2.74.43c-2.36.71-5.12,2.71-1.84,7.3,1,1.38,3.22,3.4,4.68,3.29h.07c1.47.1,3.68-1.94,4.65-3.33C30.65,35.76,27.87,33.79,25.51,33.1Z"/></svg>