<svg xmlns="http://www.w3.org/2000/svg" viewBox="0 0 200 36"><defs><style>.a{fill:#fff;}</style></defs><path class="a" d="M5.48,27.16a.72.72,0,0,1-.2-.53V5.05a.77.77,0,0,1,.2-.54A.69.69,0,0,1,6,4.3h8a8.14,8.14,0,0,1,5.55,1.76,6.34,6.34,0,0,1,2,5.06,6.33,6.33,0,0,1-2,5.05A8.14,8.14,0,0,1,14,17.93H7.36v8.7a.67.67,0,0,1-.22.53.76.76,0,0,1-.54.19H6A.72.72,0,0,1,5.48,27.16ZM13.85,16a6.31,6.31,0,0,0,4.25-1.24,4.52,4.52,0,0,0,1.41-3.6A4.53,4.53,0,0,0,18.1,7.51a6.31,6.31,0,0,0-4.25-1.24H7.36V16Z"/><path class="a" d="M25.74,27.16a.72.72,0,0,1-.2-.53V11a.77.77,0,0,1,.2-.54.67.67,0,0,1,.52-.21h.53a.73.73,0,0,1,.54.21.7.7,0,0,1,.22.54V12.5c.79-1.52,2.28-2.27,4.48-2.27h1.22A.67.67,0,0,1,34,11v.46a.69.69,0,0,1-.2.53.7.7,0,0,1-.52.2H31.83a4.22,4.22,0,0,0-3.13,1.15,4.22,4.22,0,0,0-1.15,3.13V26.63a.67.67,0,0,1-.22.53.76.76,0,0,1-.54.19h-.53A.69.69,0,0,1,25.74,27.16Z"/><path class="a" d="M36.84,6.5a.7.7,0,0,1-.2-.52V4.72a.78.78,0,0,1,.2-.54A.69.69,0,0,1,37.36,4h1.26a.73.73,0,0,1,.54.21.75.75,0,0,1,.21.54V6a.67.67,0,0,1-.21.52.72.72,0,0,1-.54.2H37.36A.68.68,0,0,1,36.84,6.5Zm.36,20.66a.72.72,0,0,1-.2-.53V11a.74.74,0,0,1,.2-.53.72.72,0,0,1,.53-.19h.56A.67.67,0,0,1,39,11V26.63a.69.69,0,0,1-.2.53.69.69,0,0,1-.52.19h-.56A.72.72,0,0,1,37.2,27.16Z"/><path class="a" d="M44.55,27.16a.69.69,0,0,1-.2-.53V11a.67.67,0,0,1,.72-.72h.56a.72.72,0,0,1,.53.19.74.74,0,0,1,.2.53V12.1a5.74,5.74,0,0,1,2-1.64,6,6,0,0,1,2.72-.56A5.47,5.47,0,0,1,56.34,13a5.93,5.93,0,0,1,2.25-2.25,6.64,6.64,0,0,1,3.35-.84,5.75,5.75,0,0,1,4.44,1.86A7.48,7.48,0,0,1,68.1,17v9.59a.67.67,0,0,1-.73.72h-.56a.69.69,0,0,1-.52-.19.69.69,0,0,1-.2-.53V17.37c0-2-.41-3.42-1.24-4.28a4.3,4.3,0,0,0-3.24-1.28,4.2,4.2,0,0,0-3.08,1.3,5.85,5.85,0,0,0-1.3,4.26v9.26a.67.67,0,0,1-.73.72h-.56a.69.69,0,0,1-.52-.19.69.69,0,0,1-.2-.53V17.37a5.9,5.9,0,0,0-1.29-4.26,4.28,4.28,0,0,0-3.19-1.3,4.2,4.2,0,0,0-3.08,1.3,5.81,5.81,0,0,0-1.3,4.23v9.29a.67.67,0,0,1-.73.72h-.56A.69.69,0,0,1,44.55,27.16Z"/><path class="a" d="M75,27a5.75,5.75,0,0,1-2.16-1.78A4.13,4.13,0,0,1,72,22.78a4.32,4.32,0,0,1,1.77-3.56,9.58,9.58,0,0,1,4.76-1.78l5.2-.73V15.56a3.52,3.52,0,0,0-1.1-2.78,5,5,0,0,0-3.38-1,5.16,5.16,0,0,0-2.75.66,3,3,0,0,0-1.37,1.58,1.13,1.13,0,0,1-.31.54.73.73,0,0,1-.48.15h-.46a.67.67,0,0,1-.51-.22.69.69,0,0,1-.21-.51,3.17,3.17,0,0,1,.66-1.69,5.42,5.42,0,0,1,2-1.7,7.26,7.26,0,0,1,3.39-.72q3.52,0,5,1.68a5.94,5.94,0,0,1,1.48,4.08v11a.72.72,0,0,1-.2.53.69.69,0,0,1-.52.19h-.56a.67.67,0,0,1-.73-.72V25.08a5.79,5.79,0,0,1-2.12,1.85,7.88,7.88,0,0,1-3.71.75A6.72,6.72,0,0,1,75,27Zm7.21-2.84a6.23,6.23,0,0,0,1.55-4.54V18.53l-4.25.59a10.19,10.19,0,0,0-4.08,1.25A2.62,2.62,0,0,0,74,22.61,2.65,2.65,0,0,0,75.26,25a5.72,5.72,0,0,0,6.9-.76Z"/><path class="a" d="M95.31,26.53,89.25,11.25l-.07-.37a.66.66,0,0,1,.2-.46.62.62,0,0,1,.46-.19h.69a.68.68,0,0,1,.48.16.86.86,0,0,1,.24.33L96.82,25l5.57-14.23a.86.86,0,0,1,.24-.33.71.71,0,0,1,.48-.16h.69a.65.65,0,0,1,.66.65l-.06.37L98.34,26.53a1.24,1.24,0,0,1-1.26.82h-.52A1.22,1.22,0,0,1,95.31,26.53Z"/><path class="a" d="M109,25.62a8.8,8.8,0,0,1-2.17-5.51l0-1.32,0-1.32A8.86,8.86,0,0,1,109,12a6.5,6.5,0,0,1,5-2.07,6.6,6.6,0,0,1,5.35,2.27,9.28,9.28,0,0,1,1.93,6.22v.5a.71.71,0,0,1-.21.53.8.8,0,0,1-.55.19H108.88v.33a7.2,7.2,0,0,0,.71,2.89A5.42,5.42,0,0,0,111.38,25a4.65,4.65,0,0,0,2.7.8,5.53,5.53,0,0,0,3-.7,5.39,5.39,0,0,0,1.63-1.44,2.27,2.27,0,0,1,.45-.49,1,1,0,0,1,.54-.1h.53a.74.74,0,0,1,.49.16.55.55,0,0,1,.2.43A2.77,2.77,0,0,1,120,25.3,7.54,7.54,0,0,1,117.57,27a8.3,8.3,0,0,1-3.49.7A6.55,6.55,0,0,1,109,25.62Zm10.31-7.85v-.13a6.14,6.14,0,0,0-1.43-4.19,4.87,4.87,0,0,0-3.84-1.64,4.74,4.74,0,0,0-3.8,1.64,6.22,6.22,0,0,0-1.4,4.19v.13Z"/><path class="a" d="M125.91,27.16a.72.72,0,0,1-.2-.53V11a.77.77,0,0,1,.2-.54.67.67,0,0,1,.52-.21H127a.73.73,0,0,1,.54.21.7.7,0,0,1,.22.54V12.5c.79-1.52,2.28-2.27,4.48-2.27h1.22a.67.67,0,0,1,.72.72v.46a.69.69,0,0,1-.2.53.7.7,0,0,1-.52.2H132a4.22,4.22,0,0,0-3.13,1.15,4.22,4.22,0,0,0-1.15,3.13V26.63a.67.67,0,0,1-.22.53.76.76,0,0,1-.54.19h-.53A.69.69,0,0,1,125.91,27.16Z"/><path class="a" d="M135.16,27.16a.69.69,0,0,1-.2-.5l.07-.29,7.91-21.25a1.18,1.18,0,0,1,1.18-.82h3.63a1.18,1.18,0,0,1,1.18.82l7.91,21.25.06.29a.66.66,0,0,1-.21.5.68.68,0,0,1-.48.19h-2.93a1,1,0,0,1-1-.62l-1.51-4h-9.75l-1.52,4a.94.94,0,0,1-.95.62h-2.93A.68.68,0,0,1,135.16,27.16Zm7.05-8.24h7.45L145.93,8.78Z"/><path class="a" d="M159.8,33.4a.77.77,0,0,1-.23-.58V11a.77.77,0,0,1,.23-.58.81.81,0,0,1,.56-.21H163a.79.79,0,0,1,.82.79v1.31a6,6,0,0,1,5.24-2.43,6.29,6.29,0,0,1,5.1,2.09,8.82,8.82,0,0,1,1.91,5.61,11.89,11.89,0,0,1,0,1.19,11.89,11.89,0,0,1,0,1.19,8.72,8.72,0,0,1-1.89,5.58,6.32,6.32,0,0,1-5.12,2.12,5.89,5.89,0,0,1-5-2.34v7.48a.76.76,0,0,1-.22.58.77.77,0,0,1-.57.21h-2.87A.81.81,0,0,1,159.8,33.4Zm11.76-13.62q0-.33,0-1t0-1q-.23-4.35-3.75-4.35a3.28,3.28,0,0,0-2.8,1.22,5.06,5.06,0,0,0-1,3c0,.26,0,.68,0,1.25s0,1,0,1.28a4.48,4.48,0,0,0,1,2.8,3.4,3.4,0,0,0,2.77,1.16Q171.33,24.13,171.56,19.78Z"/><path class="a" d="M180,33.4a.73.73,0,0,1-.23-.58V11a.73.73,0,0,1,.23-.58.79.79,0,0,1,.56-.21h2.63a.81.81,0,0,1,.6.23.77.77,0,0,1,.23.56v1.31a6,6,0,0,1,5.23-2.43A6.33,6.33,0,0,1,194.39,12a8.88,8.88,0,0,1,1.91,5.61c0,.27,0,.66,0,1.19s0,.92,0,1.19a8.84,8.84,0,0,1-1.89,5.58,6.34,6.34,0,0,1-5.13,2.12,5.92,5.92,0,0,1-5-2.34v7.48a.73.73,0,0,1-.79.79h-2.86A.79.79,0,0,1,180,33.4Zm11.76-13.62q0-.33,0-1t0-1q-.24-4.35-3.76-4.35a3.3,3.3,0,0,0-2.8,1.22,5.2,5.2,0,0,0-1,3c0,.26,0,.68,0,1.25s0,1,0,1.28a4.6,4.6,0,0,0,1,2.8A3.4,3.4,0,0,0,188,24.13Q191.56,24.13,191.79,19.78Z"/></svg>